<mxfile host="app.diagrams.net" modified="2024-02-10T14:24:27.860Z" agent="Mozilla/5.0 (Macintosh; Intel Mac OS X 10_15_7) AppleWebKit/537.36 (KHTML, like Gecko) Chrome/121.0.0.0 Safari/537.36" etag="hmJyLX8gc5aER8g0z4op" version="23.1.2" type="google">
  <diagram name="페이지-1" id="5U2kIZlma9ekf9piIJ0z">
    <mxGraphModel grid="1" page="1" gridSize="10" guides="1" tooltips="1" connect="1" arrows="1" fold="1" pageScale="1" pageWidth="827" pageHeight="1169" math="0" shadow="0">
      <root>
        <mxCell id="0" />
        <mxCell id="1" parent="0" />
        <mxCell id="3tD5PjR5uUYISUydMk2n-3" value="" style="rounded=0;whiteSpace=wrap;html=1;" vertex="1" parent="1">
          <mxGeometry x="10" y="10" width="390" height="850" as="geometry" />
        </mxCell>
        <mxCell id="3tD5PjR5uUYISUydMk2n-4" value="" style="rounded=0;whiteSpace=wrap;html=1;" vertex="1" parent="1">
          <mxGeometry x="420" y="10" width="400" height="850" as="geometry" />
        </mxCell>
        <mxCell id="3tD5PjR5uUYISUydMk2n-1" value="Start" style="ellipse;whiteSpace=wrap;html=1;fontSize=9;" vertex="1" parent="1">
          <mxGeometry x="50" y="47" width="80" height="40" as="geometry" />
        </mxCell>
        <mxCell id="3tD5PjR5uUYISUydMk2n-6" value="DB 연결" style="shape=hexagon;perimeter=hexagonPerimeter2;whiteSpace=wrap;html=1;fixedSize=1;fontSize=9;" vertex="1" parent="1">
          <mxGeometry x="60" y="110" width="60" height="40" as="geometry" />
        </mxCell>
        <mxCell id="3tD5PjR5uUYISUydMk2n-7" value="" style="edgeStyle=none;orthogonalLoop=1;jettySize=auto;html=1;rounded=0;exitX=0.5;exitY=1;exitDx=0;exitDy=0;" edge="1" parent="1" source="3tD5PjR5uUYISUydMk2n-1" target="3tD5PjR5uUYISUydMk2n-6">
          <mxGeometry width="80" relative="1" as="geometry">
            <mxPoint x="-30" y="230" as="sourcePoint" />
            <mxPoint x="50" y="230" as="targetPoint" />
            <Array as="points" />
          </mxGeometry>
        </mxCell>
        <mxCell id="3tD5PjR5uUYISUydMk2n-56" value="" style="edgeStyle=orthogonalEdgeStyle;rounded=0;orthogonalLoop=1;jettySize=auto;html=1;" edge="1" parent="1" source="3tD5PjR5uUYISUydMk2n-12" target="3tD5PjR5uUYISUydMk2n-40">
          <mxGeometry relative="1" as="geometry" />
        </mxCell>
        <mxCell id="3tD5PjR5uUYISUydMk2n-12" value="검색창 아래를 3 단으로 나눠 각 사이트별 TOP 20을 보여준다." style="shape=document;whiteSpace=wrap;html=1;boundedLbl=1;fontSize=9;" vertex="1" parent="1">
          <mxGeometry x="48" y="300" width="120" height="50" as="geometry" />
        </mxCell>
        <mxCell id="3tD5PjR5uUYISUydMk2n-16" value="" style="edgeStyle=none;orthogonalLoop=1;jettySize=auto;html=1;rounded=0;exitX=1;exitY=0.5;exitDx=0;exitDy=0;entryX=0;entryY=0.5;entryDx=0;entryDy=0;" edge="1" parent="1" source="3tD5PjR5uUYISUydMk2n-6" target="3tD5PjR5uUYISUydMk2n-20">
          <mxGeometry width="80" relative="1" as="geometry">
            <mxPoint x="400" y="30" as="sourcePoint" />
            <mxPoint x="410" y="130" as="targetPoint" />
            <Array as="points" />
          </mxGeometry>
        </mxCell>
        <mxCell id="3tD5PjR5uUYISUydMk2n-19" value="&lt;meta charset=&quot;utf-8&quot;&gt;&lt;span style=&quot;color: rgb(0, 0, 0); font-family: Helvetica; font-size: 9px; font-style: normal; font-variant-ligatures: normal; font-variant-caps: normal; font-weight: 400; letter-spacing: normal; orphans: 2; text-align: center; text-indent: 0px; text-transform: none; widows: 2; word-spacing: 0px; -webkit-text-stroke-width: 0px; background-color: rgb(251, 251, 251); text-decoration-thickness: initial; text-decoration-style: initial; text-decoration-color: initial; float: none; display: inline !important;&quot;&gt;DB의 자료 중 가장 최신 자료를 셀렉트&lt;/span&gt;" style="rounded=0;whiteSpace=wrap;html=1;fontSize=9;" vertex="1" parent="1">
          <mxGeometry x="460" y="300" width="120" height="60" as="geometry" />
        </mxCell>
        <mxCell id="3tD5PjR5uUYISUydMk2n-20" value="DB에 자료가 있는가?" style="rhombus;whiteSpace=wrap;html=1;fontSize=9;" vertex="1" parent="1">
          <mxGeometry x="460" y="105" width="120" height="50" as="geometry" />
        </mxCell>
        <mxCell id="3tD5PjR5uUYISUydMk2n-21" value="크롬 드라이버를 사용하여 각 사이트의 자료를 크롤링하여 DB에 넣는다" style="rounded=0;whiteSpace=wrap;html=1;fontSize=9;" vertex="1" parent="1">
          <mxGeometry x="650" y="110" width="140" height="40" as="geometry" />
        </mxCell>
        <mxCell id="3tD5PjR5uUYISUydMk2n-22" value="" style="edgeStyle=none;orthogonalLoop=1;jettySize=auto;html=1;rounded=0;exitX=1;exitY=0.5;exitDx=0;exitDy=0;entryX=0;entryY=0.5;entryDx=0;entryDy=0;fontColor=#000000;strokeColor=#FF0000;" edge="1" parent="1" source="3tD5PjR5uUYISUydMk2n-20" target="3tD5PjR5uUYISUydMk2n-21">
          <mxGeometry width="80" relative="1" as="geometry">
            <mxPoint x="400" y="80" as="sourcePoint" />
            <mxPoint x="480" y="80" as="targetPoint" />
            <Array as="points" />
          </mxGeometry>
        </mxCell>
        <mxCell id="3tD5PjR5uUYISUydMk2n-23" value="No" style="text;strokeColor=none;align=center;fillColor=none;html=1;verticalAlign=middle;whiteSpace=wrap;rounded=0;" vertex="1" parent="1">
          <mxGeometry x="560" y="105" width="60" height="30" as="geometry" />
        </mxCell>
        <mxCell id="3tD5PjR5uUYISUydMk2n-25" value="" style="edgeStyle=none;orthogonalLoop=1;jettySize=auto;html=1;rounded=0;exitX=0.5;exitY=1;exitDx=0;exitDy=0;entryX=0.5;entryY=0;entryDx=0;entryDy=0;" edge="1" parent="1" source="3tD5PjR5uUYISUydMk2n-20" target="3tD5PjR5uUYISUydMk2n-27">
          <mxGeometry width="80" relative="1" as="geometry">
            <mxPoint x="410" y="110" as="sourcePoint" />
            <mxPoint x="410" y="210" as="targetPoint" />
            <Array as="points" />
          </mxGeometry>
        </mxCell>
        <mxCell id="3tD5PjR5uUYISUydMk2n-26" value="Yes" style="text;strokeColor=none;align=center;fillColor=none;html=1;verticalAlign=middle;whiteSpace=wrap;rounded=0;" vertex="1" parent="1">
          <mxGeometry x="503" y="148" width="60" height="30" as="geometry" />
        </mxCell>
        <mxCell id="3tD5PjR5uUYISUydMk2n-27" value="&lt;font style=&quot;font-size: 8px;&quot;&gt;서버의 날짜와 마지막&lt;br&gt;업데이트 날짜가 같은가?&lt;/font&gt;" style="rhombus;whiteSpace=wrap;html=1;fontSize=9;" vertex="1" parent="1">
          <mxGeometry x="460" y="200" width="120" height="70" as="geometry" />
        </mxCell>
        <mxCell id="3tD5PjR5uUYISUydMk2n-29" value="" style="edgeStyle=none;orthogonalLoop=1;jettySize=auto;html=1;rounded=0;exitX=0.5;exitY=1;exitDx=0;exitDy=0;entryX=0.5;entryY=0;entryDx=0;entryDy=0;" edge="1" parent="1" source="3tD5PjR5uUYISUydMk2n-27" target="3tD5PjR5uUYISUydMk2n-19">
          <mxGeometry width="80" relative="1" as="geometry">
            <mxPoint x="597" y="245" as="sourcePoint" />
            <mxPoint x="597" y="290" as="targetPoint" />
            <Array as="points" />
          </mxGeometry>
        </mxCell>
        <mxCell id="3tD5PjR5uUYISUydMk2n-30" value="Yes" style="text;strokeColor=none;align=center;fillColor=none;html=1;verticalAlign=middle;whiteSpace=wrap;rounded=0;" vertex="1" parent="1">
          <mxGeometry x="503" y="260" width="60" height="30" as="geometry" />
        </mxCell>
        <mxCell id="3tD5PjR5uUYISUydMk2n-31" value="" style="edgeStyle=none;orthogonalLoop=1;jettySize=auto;html=1;rounded=0;exitX=0.5;exitY=0;exitDx=0;exitDy=0;entryX=0.5;entryY=0;entryDx=0;entryDy=0;" edge="1" parent="1" source="3tD5PjR5uUYISUydMk2n-21" target="3tD5PjR5uUYISUydMk2n-20">
          <mxGeometry width="80" relative="1" as="geometry">
            <mxPoint x="410" y="70" as="sourcePoint" />
            <mxPoint x="490" y="70" as="targetPoint" />
            <Array as="points">
              <mxPoint x="720" y="70" />
              <mxPoint x="520" y="70" />
            </Array>
          </mxGeometry>
        </mxCell>
        <mxCell id="3tD5PjR5uUYISUydMk2n-32" value="" style="edgeStyle=none;orthogonalLoop=1;jettySize=auto;html=1;rounded=0;exitX=1;exitY=0.5;exitDx=0;exitDy=0;fontColor=#000000;strokeColor=#FF0000;" edge="1" parent="1" source="3tD5PjR5uUYISUydMk2n-27" target="3tD5PjR5uUYISUydMk2n-34">
          <mxGeometry width="80" relative="1" as="geometry">
            <mxPoint x="410" y="210" as="sourcePoint" />
            <mxPoint x="840" y="210" as="targetPoint" />
            <Array as="points">
              <mxPoint x="620" y="235" />
            </Array>
          </mxGeometry>
        </mxCell>
        <mxCell id="3tD5PjR5uUYISUydMk2n-33" value="No" style="text;strokeColor=none;align=center;fillColor=none;html=1;verticalAlign=middle;whiteSpace=wrap;rounded=0;" vertex="1" parent="1">
          <mxGeometry x="560" y="210" width="60" height="30" as="geometry" />
        </mxCell>
        <mxCell id="3tD5PjR5uUYISUydMk2n-34" value="" style="ellipse;whiteSpace=wrap;html=1;aspect=fixed;" vertex="1" parent="1">
          <mxGeometry x="610" y="120" width="20" height="20" as="geometry" />
        </mxCell>
        <mxCell id="3tD5PjR5uUYISUydMk2n-35" value="" style="endArrow=classic;html=1;rounded=0;entryX=0.5;entryY=0;entryDx=0;entryDy=0;exitX=0;exitY=0.5;exitDx=0;exitDy=0;" edge="1" parent="1" source="3tD5PjR5uUYISUydMk2n-19" target="3tD5PjR5uUYISUydMk2n-12">
          <mxGeometry width="50" height="50" relative="1" as="geometry">
            <mxPoint x="310" y="350" as="sourcePoint" />
            <mxPoint x="360" y="300" as="targetPoint" />
            <Array as="points">
              <mxPoint x="360" y="330" />
              <mxPoint x="360" y="270" />
              <mxPoint x="108" y="270" />
            </Array>
          </mxGeometry>
        </mxCell>
        <mxCell id="3tD5PjR5uUYISUydMk2n-43" value="" style="edgeStyle=orthogonalEdgeStyle;rounded=0;orthogonalLoop=1;jettySize=auto;html=1;" edge="1" parent="1" source="3tD5PjR5uUYISUydMk2n-40" target="3tD5PjR5uUYISUydMk2n-42">
          <mxGeometry relative="1" as="geometry" />
        </mxCell>
        <mxCell id="3tD5PjR5uUYISUydMk2n-40" value="Real Top 10&lt;br&gt;button 활성화" style="shape=hexagon;perimeter=hexagonPerimeter2;whiteSpace=wrap;html=1;fixedSize=1;fontSize=9;" vertex="1" parent="1">
          <mxGeometry x="48" y="413" width="120" height="35" as="geometry" />
        </mxCell>
        <mxCell id="3tD5PjR5uUYISUydMk2n-45" value="" style="edgeStyle=orthogonalEdgeStyle;rounded=0;orthogonalLoop=1;jettySize=auto;html=1;" edge="1" parent="1" source="3tD5PjR5uUYISUydMk2n-42" target="3tD5PjR5uUYISUydMk2n-46">
          <mxGeometry relative="1" as="geometry">
            <mxPoint x="250" y="463.75" as="targetPoint" />
          </mxGeometry>
        </mxCell>
        <mxCell id="3tD5PjR5uUYISUydMk2n-42" value="RT10 Btn&lt;br&gt;Click" style="rhombus;whiteSpace=wrap;html=1;fontSize=9;" vertex="1" parent="1">
          <mxGeometry x="68" y="473" width="80" height="47.5" as="geometry" />
        </mxCell>
        <mxCell id="3tD5PjR5uUYISUydMk2n-46" value="각 사이트의 Top 20에 대해 1등부터 20등까지 20점부터 1점으로 점수부여, 취합하여 점수로 순위 재산정 Top10 선정" style="rounded=0;whiteSpace=wrap;html=1;fontSize=9;" vertex="1" parent="1">
          <mxGeometry x="460" y="465.75" width="120" height="60" as="geometry" />
        </mxCell>
        <mxCell id="3tD5PjR5uUYISUydMk2n-47" value="Yes" style="text;strokeColor=none;align=center;fillColor=none;html=1;verticalAlign=middle;whiteSpace=wrap;rounded=0;fontSize=12;" vertex="1" parent="1">
          <mxGeometry x="128" y="473" width="60" height="30" as="geometry" />
        </mxCell>
        <mxCell id="3tD5PjR5uUYISUydMk2n-59" value="" style="edgeStyle=orthogonalEdgeStyle;rounded=0;orthogonalLoop=1;jettySize=auto;html=1;" edge="1" parent="1" source="3tD5PjR5uUYISUydMk2n-48" target="3tD5PjR5uUYISUydMk2n-58">
          <mxGeometry relative="1" as="geometry" />
        </mxCell>
        <mxCell id="3tD5PjR5uUYISUydMk2n-48" value="3단을 1단으로 변경하고&amp;nbsp;&lt;br style=&quot;font-size: 9px;&quot;&gt;Real Top 10 리스트를&lt;br style=&quot;font-size: 9px;&quot;&gt;보여준다" style="shape=document;whiteSpace=wrap;html=1;boundedLbl=1;fontSize=9;" vertex="1" parent="1">
          <mxGeometry x="220" y="603" width="120" height="60" as="geometry" />
        </mxCell>
        <mxCell id="3tD5PjR5uUYISUydMk2n-49" value="" style="endArrow=classic;html=1;rounded=0;exitX=0.5;exitY=1;exitDx=0;exitDy=0;entryX=0.5;entryY=0;entryDx=0;entryDy=0;" edge="1" parent="1" source="3tD5PjR5uUYISUydMk2n-46" target="3tD5PjR5uUYISUydMk2n-48">
          <mxGeometry width="50" height="50" relative="1" as="geometry">
            <mxPoint x="390" y="590" as="sourcePoint" />
            <mxPoint x="440" y="540" as="targetPoint" />
            <Array as="points">
              <mxPoint x="520" y="560" />
              <mxPoint x="280" y="560" />
            </Array>
          </mxGeometry>
        </mxCell>
        <mxCell id="3tD5PjR5uUYISUydMk2n-51" value="" style="endArrow=classic;html=1;rounded=0;exitX=0.5;exitY=1;exitDx=0;exitDy=0;entryX=0;entryY=0.5;entryDx=0;entryDy=0;strokeColor=#FF0000;" edge="1" parent="1" source="3tD5PjR5uUYISUydMk2n-42" target="3tD5PjR5uUYISUydMk2n-55">
          <mxGeometry width="50" height="50" relative="1" as="geometry">
            <mxPoint x="408" y="623" as="sourcePoint" />
            <mxPoint x="108" y="393" as="targetPoint" />
            <Array as="points">
              <mxPoint x="108" y="563" />
              <mxPoint x="38" y="563" />
              <mxPoint x="38" y="380" />
            </Array>
          </mxGeometry>
        </mxCell>
        <mxCell id="3tD5PjR5uUYISUydMk2n-55" value="" style="ellipse;whiteSpace=wrap;html=1;aspect=fixed;" vertex="1" parent="1">
          <mxGeometry x="98" y="370" width="20" height="20" as="geometry" />
        </mxCell>
        <mxCell id="3tD5PjR5uUYISUydMk2n-57" value="No" style="text;strokeColor=none;align=center;fillColor=none;html=1;verticalAlign=middle;whiteSpace=wrap;rounded=0;" vertex="1" parent="1">
          <mxGeometry x="68" y="510" width="60" height="30" as="geometry" />
        </mxCell>
        <mxCell id="3tD5PjR5uUYISUydMk2n-58" value="End" style="ellipse;whiteSpace=wrap;html=1;fontSize=9;" vertex="1" parent="1">
          <mxGeometry x="240" y="720" width="80" height="40" as="geometry" />
        </mxCell>
      </root>
    </mxGraphModel>
  </diagram>
</mxfile>
